<svg xmlns="http://www.w3.org/2000/svg" xmlns:xlink="http://www.w3.org/1999/xlink" width="2000" zoomAndPan="magnify" viewBox="0 0 1500 1499.999933" height="2000" preserveAspectRatio="xMidYMid meet" version="1.0"><defs><clipPath id="faa85034b9"><path d="M 333.164062 333.164062 L 1167.164062 333.164062 L 1167.164062 1167.164062 L 333.164062 1167.164062 Z M 333.164062 333.164062 " clip-rule="nonzero"/></clipPath></defs><g clip-path="url(#faa85034b9)"><path fill="#231f20" d="M 530.371094 1167.164062 L 333.164062 969.964844 L 552.964844 750.167969 L 333.164062 530.371094 L 530.371094 333.164062 L 750.160156 552.964844 L 969.960938 333.164062 L 1167.164062 530.371094 L 947.367188 750.167969 L 1167.164062 969.964844 L 969.960938 1167.160156 L 823.621094 1020.828125 C 761.632812 958.832031 761.632812 857.960938 823.621094 795.972656 L 869.425781 750.167969 L 750.160156 630.90625 L 630.90625 750.167969 L 676.699219 795.972656 C 706.734375 825.996094 723.277344 865.925781 723.277344 908.398438 C 723.277344 950.867188 706.734375 990.796875 676.699219 1020.828125 Z M 908.394531 789.136719 L 862.589844 834.9375 C 822.089844 875.449219 822.089844 941.351562 862.589844 981.859375 L 969.960938 1089.222656 L 1089.21875 969.964844 Z M 411.113281 969.964844 L 530.371094 1089.21875 L 637.734375 981.859375 C 657.351562 962.234375 668.164062 936.144531 668.164062 908.398438 C 668.164062 880.648438 657.351562 854.5625 637.734375 834.9375 L 591.929688 789.144531 Z M 411.113281 530.371094 L 591.929688 711.195312 L 711.195312 591.9375 L 530.371094 411.113281 Z M 789.136719 591.9375 L 908.394531 711.195312 L 1089.21875 530.371094 L 969.960938 411.113281 Z M 789.136719 591.9375 " fill-opacity="1" fill-rule="nonzero"/></g></svg>