<svg xmlns="http://www.w3.org/2000/svg" xmlns:xlink="http://www.w3.org/1999/xlink" width="2000" zoomAndPan="magnify" viewBox="0 0 1500 1499.999933" height="2000" preserveAspectRatio="xMidYMid meet" version="1.0"><defs><clipPath id="bf28efc0d5"><path d="M 333.164062 333.164062 L 1167 333.164062 L 1167 1167 L 333.164062 1167 Z M 333.164062 333.164062 " clip-rule="nonzero"/></clipPath></defs><g clip-path="url(#bf28efc0d5)"><path fill="#ffffff" d="M 530.289062 1166.824219 L 333.164062 969.707031 L 552.875 750 L 333.164062 530.289062 L 530.289062 333.164062 L 749.992188 552.875 L 969.699219 333.164062 L 1166.824219 530.289062 L 947.117188 750 L 1166.824219 969.707031 L 969.699219 1166.820312 L 823.421875 1020.546875 C 761.457031 958.578125 761.457031 857.746094 823.421875 795.78125 L 869.207031 750 L 749.992188 630.785156 L 630.785156 750 L 676.5625 795.78125 C 706.582031 825.796875 723.117188 865.710938 723.117188 908.164062 C 723.117188 950.613281 706.582031 990.527344 676.5625 1020.546875 Z M 908.160156 788.949219 L 862.375 834.734375 C 821.890625 875.226562 821.890625 941.105469 862.375 981.597656 L 969.699219 1088.914062 L 1088.910156 969.707031 Z M 411.082031 969.707031 L 530.289062 1088.910156 L 637.609375 981.597656 C 657.21875 961.980469 668.027344 935.898438 668.027344 908.164062 C 668.027344 880.425781 657.21875 854.351562 637.609375 834.734375 L 591.824219 788.957031 Z M 411.082031 530.289062 L 591.824219 711.039062 L 711.039062 591.832031 L 530.289062 411.082031 Z M 788.949219 591.832031 L 908.160156 711.039062 L 1088.910156 530.289062 L 969.699219 411.082031 Z M 788.949219 591.832031 " fill-opacity="1" fill-rule="nonzero"/></g></svg>